<?xml version="1.0" encoding="utf-8"?>
<!-- Generator: Adobe Illustrator 22.1.0, SVG Export Plug-In . SVG Version: 6.00 Build 0)  -->
<svg version="1.1" id="Layer_1" xmlns="http://www.w3.org/2000/svg" xmlns:xlink="http://www.w3.org/1999/xlink" x="0px" y="0px"
	 viewBox="0 0 100 115.1" style="enable-background:new 0 0 100 115.1;" xml:space="preserve">
<style type="text/css">
	.st0{fill:#253E51;}
	.st1{fill:#FFFFFF;}
</style>
<g>
	<rect x="-0.00003" class="st0" width="100" height="99.91324"/>
	<g>
		
			<rect x="49.95642" y="43.2775" transform="matrix(0.03192 -0.99949 0.99949 0.03192 -40.18122 135.77629)" class="st1" width="0.08709" height="90.70608"/>
		
			<rect x="4.83188" y="86.58096" transform="matrix(0.99894 -0.04603 0.04603 0.99894 -3.93846 2.29328)" class="st1" width="85.9894" height="0.16937"/>
		
			<rect x="43.60226" y="51.3469" transform="matrix(0.0832 -0.99653 0.99653 0.0832 -48.27103 124.7917)" class="st1" width="0.16936" height="74.56709"/>
		
			<rect x="25.49918" y="88.75262" transform="matrix(0.99777 -0.06668 0.06668 0.99777 -5.79164 4.15987)" class="st1" width="67.83772" height="0.16914"/>
	</g>
	<path class="st1" d="M45.42642,75.64341l0.00146-0.04184l-0.4168-0.0369l0.86362-0.01542l0.00143-0.04184L45.21814,75.449
		l0.39849,0.01804l0.00202-0.04184l-0.55267-0.02499l-0.00173-0.00283c0.02029-0.0064,0.03996-0.0127,0.05919-0.01928
		l0.45786-0.02149l-0.00203-0.04184l-0.04755,0.00224l0.00104-0.03044l-0.03199-0.0028l-0.03151-0.05038
		c0.03053-0.01627,0.04737-0.02642,0.04854-0.02702l0.05812-0.03574l-0.15037-0.00726l-0.03146-0.05026l0.29678-0.0134
		l-0.00205-0.04184l-0.32029,0.01443l-0.10267-0.16402l0.08833-0.00822l-0.00378-0.04184l-0.00348,0.00033l-0.00053-0.01033
		l0.45623-0.04231l-0.00378-0.04184l-0.78324,0.07264l-0.11924-0.19064v0.06276c-0.00438,0.0003-0.0205-0.00116-0.04622-0.00957
		c-0.02631-0.00786-0.27041,0.02788-0.77884,0.11478c-0.15843-0.01566-0.33439-0.03291-0.5205-0.05098l1.90817-0.17685
		l-0.00378-0.04185l-2.12746,0.19715c-0.17584-0.0169-0.3576-0.03416-0.54279-0.05151l-0.01788-0.98893l0.17712-1.90472
		l-0.04184-0.00407l-0.14212,1.52857l-0.02759-1.52682l-0.04202-0.00146l-0.05806,0.66266l0.01827-0.40343l-0.04214-0.00172
		l-0.02538,0.55978c-0.00708-0.02267-0.01408-0.04443-0.0214-0.06573l-0.01723-0.36629l0.05585-0.60145l-0.04184-0.00407
		l-0.04794,0.51589l-0.0125,0.0005l0.00274,0.05824l-0.03077,0.01907l0.02556-0.2749l-0.04187-0.00408l-0.02848,0.30678
		l-0.00812,0.00506c-0.00708-0.01324-0.01244-0.02279-0.0169-0.03071l-0.01072-0.59412l-0.04199-0.00143l-0.05517,0.62364
		l-0.00092-0.02068l0.01556-0.34373l-0.04214-0.00175l-0.00262,0.05794l-0.01976-0.00069l-0.02905,0.32901l-0.01646-0.34937
		l-0.04214,0.00175l0.00274,0.05791l-0.0835,0.05193c-0.01613-0.0302-0.02616-0.04678-0.0269-0.04794l-0.03559-0.05811
		l-0.00711,0.14935l-0.00087,0.00054l-0.01455-0.15659l-0.04184,0.00408l0.01646,0.17738l-0.01074,0.0067l-0.01342-0.29684
		l-0.04214,0.00172l0.01452,0.3207l-0.07467,0.04655l-0.00247-0.05485L41.7928,72.073l0.00354,0.07868l-0.09059,0.05645h0.06351
		c0.00012,0.0067-0.00131,0.02036-0.00988,0.04622c-0.00408,0.01181,0.00095,0.06589,0.01426,0.16084l-0.05303,0.03312
		l-0.07457-0.80222l-0.04184,0.00407l0.07651,0.82309l-0.07943,0.04961h0.06291c0.00015,0.0067-0.00131,0.02065-0.00958,0.04621
		c-0.00869,0.02577,0.02339,0.24158,0.09865,0.68454l0.01238,0.13302c-0.01476,0.14873-0.03068,0.31047-0.04741,0.48238
		l-0.17739-1.9082l-0.04184,0.00408l0.19772,2.1268c-0.0155,0.16111-0.03133,0.32693-0.04726,0.49616
		c-0.79985-0.06803-1.45343-0.11272-1.52768-0.08449c-0.0677,0.0253-0.18888,0.10172-0.32315,0.19209l-0.87996-0.04128
		l-0.00206,0.04187l0.82404,0.03893c-0.01788,0.01193-0.03577,0.0244-0.05362,0.03664l-0.83231-0.07324l-0.00378,0.04184
		l0.78202,0.06886c-0.02803,0.01949-0.05592,0.03896-0.08324,0.05815c-0.00699,0.00464-0.01381,0.00958-0.02065,0.01422
		c-0.06466-0.00143-0.12593-0.00249-0.18497-0.00339l-0.08237-0.00387l-0.00015,0.00282
		c-0.16346-0.00182-0.30101-0.00134-0.40207,0.00185l-0.05026-0.00467l-0.00062,0.00684
		c-0.0663,0.00315-0.11389,0.00771-0.1338,0.01408c-0.04128,0.01279-0.04023,0.03806-0.03791,0.04823
		c0.00545,0.02357,0.04663,0.05199,0.11136,0.08252l-0.00253,0.02821l0.08621,0.00762
		c0.03592,0.01369,0.07541,0.02767,0.11939,0.04178c-0.1007,0.0061-0.18394,0.01048-0.24235,0.0119
		c-0.01759-0.00056-0.03372-0.00116-0.04782-0.00172c-0.02673-0.00116-0.04562-0.00205-0.05898-0.00205
		c-0.00336,0-0.00785-0.00027-0.00815,0v0.0003c-0.02411,0.0006-0.0244,0.00553-0.02512,0.01919
		c-0.00131,0.02122,0.00711,0.02179,0.0616,0.02586c0.01669,0.00146,0.043,0.00116,0.07847,0.00056
		c0.03163,0.00128,0.0627,0.00229,0.09377,0.00333l-0.07083,0.00655l0.00217,0.02402l-0.03006-0.0028l-0.00066,0.00735
		c-0.0663,0.00312-0.11388,0.00758-0.13376,0.01386c-0.04113,0.01279-0.04026,0.03806-0.03779,0.04824
		c0.00884,0.03871,0.11005,0.08978,0.26625,0.14329l-0.09433,0.00783l0.00086,0.01663
		c-0.03883,0.00196-0.07332,0.00345-0.10142,0.00432c-0.01684-0.0006-0.03241-0.0012-0.04591-0.00176
		c-0.03271-0.00116-0.05318-0.00116-0.06744-0.00175c-0.00027,0-0.00056,0-0.00071-0.00027v0.00027
		c-0.02398,0.00089-0.02425,0.00584-0.02515,0.0192c-0.00116,0.02122,0.00726,0.02178,0.06163,0.02586
		c0.0164,0.00146,0.04315,0.00146,0.07743,0.0006c0.03333,0.00116,0.06609,0.0022,0.09877,0.00321l-0.07478,0.00694l0.00378,0.04187
		l0.44408-0.04124c0.1432,0.0369,0.30598,0.07255,0.47943,0.10388l-0.50723,0.04226l0.00217,0.04184l0.23991-0.00429
		l-0.69022,0.05746l0.0022,0.04187l2.94656-0.05297c-0.07059,0.82327-0.11808,1.5042-0.0896,1.57952
		c0.02559,0.06829,0.10186,0.1895,0.19239,0.32347l-0.04154,0.88052l0.04214,0.00175l0.0388-0.82446
		c0.0122,0.018,0.02455,0.03603,0.03705,0.05377l-0.07338,0.83172l0.04184,0.00348l0.03363-0.38064l0.02681,0.0011l0.01827-0.38772
		c0.00711,0.01023,0.01414,0.02029,0.02125,0.03047l-0.03705,0.41885l0.04187,0.00351l0.03262-0.36874
		c0.00143,0.00203,0.00286,0.00402,0.00428,0.00604c-0.00604,0.28247-0.00708,0.51375-0.00241,0.66621l-0.00485,0.05246
		l0.00708,0.00072c0.00312,0.06651,0.00759,0.11424,0.01384,0.13415c0.01292,0.04124,0.03851,0.03922,0.04824,0.03777
		c0.0427-0.00988,0.10041-0.12844,0.15998-0.31387c0.00625,0.10085,0.01059,0.18427,0.01205,0.24268
		c-0.00057,0.01744-0.00131,0.03342-0.00173,0.04735c-0.00131,0.03226-0.0022,0.05321-0.00175,0.06657
		c0,0.0003-0.00015,0.00056-0.00015,0.00086h0.00015c0.00086,0.02383,0.00565,0.02413,0.01931,0.025c0.00116,0,0.00232,0,0.00336,0
		c0.01786,0,0.0186-0.01018,0.02238-0.06104c0.00131-0.01685,0.00143-0.0436,0.00056-0.07874
		c0.00125-0.03342,0.00226-0.06625,0.0033-0.09901l0.00702,0.07547l0.04184-0.00408l-0.02092-0.22497l0.02229-0.25179
		c0.00461,0.0786,0.00821,0.14754,0.00937,0.19516c-0.00056,0.01744-0.00131,0.03342-0.00172,0.04678
		c-0.00131,0.02937-0.00206,0.04884-0.00176,0.06163c0,0.00027,0,0.00056-0.00015,0.00086h0.00015
		c0.00074,0.02384,0.00554,0.02411,0.01934,0.025c0.00116,0,0.00232,0,0.00333,0c0.01788,0,0.0186-0.01048,0.02238-0.06163
		c0.00116-0.01569,0.00131-0.04008,0.00056-0.07264c0.00134-0.03493,0.00247-0.0694,0.00357-0.10362l0.0069,0.07428l0.04184-0.00407
		l-0.04124-0.44376c0.01277-0.04939,0.02538-0.10058,0.0377-0.15438c0.00158,0.00223,0.00315,0.00455,0.0047,0.00675
		c0.00452,0.0064,0.00901,0.01306,0.01351,0.01946c-0.00601,0.28101-0.00702,0.51134-0.00241,0.66397l-0.00512,0.05499
		l0.00738,0.00074c0.00312,0.06645,0.00756,0.11416,0.01381,0.13412c0.01294,0.04098,0.03779,0.03893,0.04824,0.03777
		c0.00467-0.00108,0.01009-0.00822,0.01506-0.01179l0.00327,0.0388l0.04199-0.00202l-0.00167-0.09148
		c0.0288-0.04964,0.06017-0.12469,0.09264-0.22227l0.01006-0.0005c0.00536,0.08957,0.00925,0.16593,0.01072,0.21893
		c-0.00074,0.0186-0.00146,0.03487-0.00206,0.04884c-0.00116,0.0305-0.00187,0.05025-0.00158,0.06332
		c0,0.0003-0.00015,0.0006-0.00015,0.00089h0.00015c0.00071,0.0238,0.00565,0.0241,0.01931,0.02499c0.00116,0,0.00232,0,0.00333,0
		c0.01789,0,0.0186-0.01018,0.02238-0.06133c0.00131-0.01598,0.00131-0.04154,0.0006-0.07526
		c0.00128-0.03384,0.00235-0.06711,0.00342-0.10023l0.0069,0.07436l0.04184-0.00407l-0.04121-0.44366
		c0.05315-0.20567,0.10394-0.45197,0.14233-0.71063l0.09939,1.18596l0.04199-0.00202l-0.05283-2.92319l0.71477-0.01283
		l1.90632,0.17697l0.00378-0.04184l-1.52925-0.14198l0.84975-0.01526l1.12397,0.10436l0.00378-0.04187l-0.74693-0.06934
		L45.42642,75.64341z M45.0328,75.60857l-0.28217,0.00506l-0.40025-0.03717l0.26413-0.0047L45.0328,75.60857z M38.81967,75.01057
		l0.48708,0.02301c-0.01369,0.00904-0.02565,0.01663-0.03788,0.02446l-0.41971-0.03702
		C38.83973,75.01759,38.82841,75.0139,38.81967,75.01057z M39.38686,74.92198l0.07886,0.00372
		c-0.00425,0.00294-0.00792,0.00539-0.01214,0.00831l-0.14525-0.01348C39.33353,74.92091,39.36053,74.92147,39.38686,74.92198z
		 M40.10606,74.85086l0.11766,0.01035c-0.01946,0.0127-0.03946,0.02601-0.05976,0.03958
		c-0.06761-0.0025-0.13736-0.00527-0.2023-0.00739c0.02485-0.01339,0.05249-0.02946,0.07017-0.03609
		C40.0422,74.85342,40.07035,74.85169,40.10606,74.85086z M42.1421,72.48772c0.00098-0.00295,0.00006-0.00375,0.00089-0.00655
		c-0.00015,0.00961-0.00027,0.01833-0.00042,0.02812C42.14175,72.49881,42.14157,72.49134,42.1421,72.48772z M42.36529,72.75854
		l0.00262-0.05532l0.00164,0.0919l-0.00063,0.00678L42.36529,72.75854z M45.12913,75.29354l-0.04758,0.00083L45.08872,75.29
		L45.12913,75.29354z M42.25036,77.33592c-0.00539,0.04217-0.01199,0.08341-0.01806,0.12511l0.01467-0.16561L42.25036,77.33592z
		 M42.03444,78.09937c-0.00288-0.00443-0.00708-0.01044-0.01012-0.01503l0.00351-0.07782
		C42.03006,78.03748,42.03232,78.06917,42.03444,78.09937z M40.64109,75.53851l0.72551-0.0605l0.08475,0.00786l-0.61511,0.05154
		l-0.12701,0.00595C40.68644,75.54155,40.66394,75.54063,40.64109,75.53851z M39.76866,75.01072l0.06196,0.00548l-0.06571-0.0031
		C39.76628,75.01218,39.76732,75.01161,39.76866,75.01072z M41.90564,73.2173l0.02723,0.3249l-0.01613,0.34193l-0.02354-0.52151
		l0.00803-0.17078C41.90264,73.19983,41.90424,73.20914,41.90564,73.2173z M41.94317,72.76753l0.01289,0.28452l-0.0078,0.16537
		c-0.0003-0.00176-0.00057-0.00333-0.00087-0.00509l-0.02223-0.26447C41.93121,72.8871,41.93727,72.82636,41.94317,72.76753z
		 M42.38142,73.45379l0.00039,0.02232l-0.02095,0.2256l-0.01092-0.24089l0.01684-0.18153L42.38142,73.45379z M42.62481,74.77702
		l-0.0028,0.02988l-0.08437,0.00783l-0.00777-0.09281l0.00066-0.01399c0.0305,0.00283,0.06079,0.00557,0.09142,0.00842
		L42.62481,74.77702z M44.89636,74.90034l-0.02625,0.00244v-0.00125L44.89636,74.90034z M41.98873,77.44971
		c0.00289,0.04271,0.00586,0.08514,0.00881,0.12775c-0.00425-0.00613-0.00756-0.01092-0.01193-0.01717
		C41.98643,77.52557,41.98778,77.4859,41.98873,77.44971z M41.61187,75.45754l0.03631-0.00301
		c-0.00021,0.00253-0.00042,0.00482-0.00063,0.00735l-0.03577-0.0033C41.61178,75.45823,41.61184,75.4579,41.61187,75.45754z
		 M42.18561,72.51794l0.00048,0.01036l-0.00193,0.02199c0-0.00011,0-0.00021,0-0.00033L42.18561,72.51794z M41.93954,74.3258
		c0.01711,0.09713,0.03416,0.19465,0.05127,0.29169c-0.01375-0.00122-0.02747-0.00244-0.04116-0.00363l-0.01235-0.2739
		l0.00101-0.02125C41.93873,74.32124,41.93912,74.32327,41.93954,74.3258z M44.45653,75.4407l-0.18108,0.00854
		c-0.03797-0.00372-0.076-0.00858-0.11448-0.01521c0.09555,0.00158,0.18632,0.00304,0.27065,0.00435L44.45653,75.4407z
		 M44.59092,75.16624l-0.05785,0.00485l-0.02315-0.00105l0.08083-0.00381H44.59092z M43.63597,75.38285
		c-0.12029-0.00214-0.24295-0.00441-0.36749-0.00679l0.10648-0.00893l0.02354-0.00041l0.16813,0.00761
		C43.58958,75.37717,43.61413,75.37999,43.63597,75.38285z M42.31556,76.04411l-0.02877-0.34427l0.01633-0.0003l0.00991,0.10671
		l0.00401,0.22113L42.31556,76.04411z M42.02932,76.37925c0.00161-0.03381,0.00339-0.06809,0.00506-0.1021l0.00583,0.06288
		l-0.00851,0.09174L42.02932,76.37925z M42.103,74.34615l-0.00024,0.00289l0.00015-0.00346
		C42.10297,74.34576,42.10297,74.34598,42.103,74.34615z M42.99724,75.25319l-0.08752-0.00771l0.39534-0.01866
		c-0.03193,0.00563-0.06374,0.01119-0.09567,0.01678L42.99724,75.25319z M42.3666,75.46558l-0.00066-0.01402l0.00206-0.00018
		l-0.00125,0.01417L42.3666,75.46558z M42.29818,75.19156l-0.00071-0.00771l0.00434-0.00042l0.00018,0.00845L42.29818,75.19156z
		 M42.35392,75.19647l-0.00084-0.0178l0.01107-0.00101l0.02151,0.00101l0.00092,0.02068L42.35392,75.19647z M42.16859,74.95811
		c-0.00095-0.00009-0.00187-0.00018-0.00283-0.00027l0.00301-0.06672l0.00613-0.0006L42.16859,74.95811z M42.36026,75.33107
		l-0.00033-0.0072l0.01944-0.00086l-0.00084,0.00967L42.36026,75.33107z M42.50819,75.20126l0.00077-0.01678l0.01759,0.00083
		l0.00125,0.01509L42.50819,75.20126z M41.92632,75.11496l-0.02556-0.00122l0.00092-0.01958l0.0228,0.00104L41.92632,75.11496z
		 M42.2673,75.46667c0.00473-0.00086,0.00925-0.0016,0.01398-0.00244l0.00048,0.00533l-0.01416,0.00065L42.2673,75.46667z
		 M41.85874,75.11178l-0.02509-0.00119L41.83184,75.091l0.02782,0.00125L41.85874,75.11178z M42.27108,75.512l0.01458-0.00069
		l0.00092,0.00991l-0.01485-0.00137L42.27108,75.512z M42.50322,75.34089h-0.00134l0.00066-0.01467l0.03595,0.00164l0.00084,0.01003
		L42.50322,75.34089z M42.64449,75.19513l-0.0164,0.00075l0.00054-0.00574l0.01565,0.00072L42.64449,75.19513z M42.68659,75.19287
		l0.00402,0.00018l-0.00399,0.00018L42.68659,75.19287z M42.29798,74.96989c-0.0042-0.00035-0.00842-0.00077-0.01262-0.00116
		l0.0083-0.08921l0.00271-0.00024L42.29798,74.96989z M42.6846,75.1507l-0.00012-0.0028l0.06657-0.00616l0.00021,0.01208
		L42.6846,75.1507z M42.34342,74.97355l-0.00443-0.09422c0.01122,0.00101,0.02196,0.00194,0.03321,0.00292l0.0041,0.08978
		L42.34342,74.97355z M42.07042,75.61713l0.00169-0.00003l0.00074,0.01697c-0.00042,0.01012-0.00089,0.01794-0.00131,0.02767
		l-0.00375,0.00009C42.06869,75.64693,42.06952,75.63201,42.07042,75.61713z M43.3125,75.16502l-0.16573,0.00747l-0.35341-0.01666
		l-0.00033-0.01797l0.0247-0.00229l0.40317,0.01818C43.25126,75.15752,43.28405,75.16121,43.3125,75.16502z M41.76971,75.08821
		l-0.00092,0.01934l-0.04833-0.00229c0.0006-0.00648,0.0011-0.01271,0.0017-0.0192L41.76971,75.08821z M41.92975,75.43105
		l-0.00131,0.01485l-0.04354,0.00366l0.00069-0.01485L41.92975,75.43105z M42.05027,75.96105
		c0.00464-0.08582,0.01003-0.17132,0.01506-0.25723l0.0042-0.00008c-0.00539,0.11156-0.01086,0.19521-0.01634,0.23322
		C42.05214,75.94421,42.05113,75.95233,42.05027,75.96105z M41.97956,74.86645l-0.01842,0.0017l-0.00098-0.02181
		c0.00702,0.0006,0.01396,0.00119,0.02104,0.00182L41.97956,74.86645z M41.97581,74.90897l-0.0028,0.03172
		c-0.00286-0.00027-0.00574-0.00053-0.00863-0.00077l-0.00137-0.02976L41.97581,74.90897z M41.9096,74.93504
		c-0.00015,0-0.00027,0-0.00042-0.00003l0.00015-0.00274L41.9096,74.93504z M41.68043,75.08416
		c-0.00056,0.00634-0.00116,0.0128-0.0017,0.01913l-0.03497-0.00166c0.0006-0.00643,0.00116-0.01262,0.00172-0.01904
		L41.68043,75.08416z M40.99018,75.21004l-0.51952-0.04588c0.22015,0.00824,0.45218,0.0183,0.69102,0.03L40.99018,75.21004z
		 M42.14915,75.62189l0.00056-0.00616l0.01369-0.00027c0.00247,0.01461,0.00512,0.03011,0.00753,0.04452l-0.01857,0.00033
		L42.14915,75.62189z M43.80363,75.20335l0.19482-0.00919l0.10407,0.00919l-0.15275,0.0069L43.80363,75.20335z M42.27988,74.57333
		l0.00122-0.02631l0.00045,0.00861L42.27988,74.57333z M42.22254,74.37743l-0.02053-0.22117l0.0125-0.27663
		c0.00863-0.06921,0.01735-0.13287,0.02619-0.19152l0.01545,0.3279L42.22254,74.37743z M41.86728,74.9313
		c-0.01619-0.00143-0.03181-0.00274-0.04788-0.00417l0.00015-0.00365l0.0483-0.00446L41.86728,74.9313z M41.6038,75.08071
		c-0.0006,0.00631-0.00116,0.01265-0.00175,0.01896l-0.55062-0.02596l0.19917-0.00896L41.6038,75.08071z M40.85329,75.10642
		l0.05502,0.00485l0.57315,0.05321l-0.00431,0.00041c-0.44271-0.02371-0.87772-0.04189-1.2594-0.05356l0.37802-0.01705
		L40.85329,75.10642z M39.74914,75.1427l0.05669,0.005c-0.0031,0.00214-0.00571,0.0039-0.00878,0.00604L39.65992,75.141
		C39.68843,75.14145,39.71917,75.14211,39.74914,75.1427z M39.86213,75.15978c0.00324-0.00224,0.00583-0.00405,0.00914-0.00631
		l0.27544,0.02428l-0.17727-0.008L39.86213,75.15978z M42.01709,77.04352l0.00351,0.07767l-0.00536-0.05767L42.01709,77.04352z
		 M42.17505,75.70183l-0.01009,0.10873l-0.00908-0.10838L42.17505,75.70183z M42.27956,75.61342l0.01553-0.0003l0.00417,0.04455
		l-0.01598,0.0003L42.27956,75.61342z M42.49709,75.44659l0.05172,0.00482l0.00048,0.00557l-0.05279,0.00249L42.49709,75.44659z
		 M42.55836,74.96385c-0.00384-0.02223-0.00747-0.04342-0.01137-0.0658c0.02202,0.00199,0.04387,0.00395,0.06601,0.00598
		l-0.00536,0.05758L42.55836,74.96385z M42.36922,74.81616l-0.03187-0.00149l-0.00226-0.12478
		c0.00955,0.00089,0.01892,0.00172,0.02851,0.00262L42.36922,74.81616z M41.9856,74.79813l-0.02768-0.00131l-0.0064-0.14132
		c0.01553,0.00137,0.03068,0.00265,0.0463,0.00404L41.9856,74.79813z M41.86984,74.87659l-0.0483,0.00449l0.0022-0.04639
		c0.01554,0.0013,0.0322,0.00276,0.04788,0.00407L41.86984,74.87659z M40.78598,75.04375l-0.10115,0.00455l-0.10284-0.00955
		c0.0158-0.00071,0.03157-0.00143,0.04675-0.00211L40.78598,75.04375z M39.964,75.21141l0.00809,0.00077
		c-0.06017-0.00211-0.11927-0.00417-0.17712-0.00598c0.00107-0.00071,0.00223-0.00155,0.0033-0.00226L39.964,75.21141z
		 M40.16008,75.26346c-0.06749,0.00464-0.13344,0.00919-0.19926,0.01381c-0.05946-0.00863-0.11799-0.01762-0.17593-0.02747
		C39.90496,75.25372,40.03054,75.25831,40.16008,75.26346z M41.82205,75.44001l0.00137,0.01467l-0.02901,0.00244l0.00071-0.01485
		L41.82205,75.44001z M41.88094,75.53316c0.00792-0.00134,0.01527-0.00259,0.02321-0.00393l0.00931-0.00044l0.00756,0.00071
		l-0.00271,0.03083l-0.03875,0.00182L41.88094,75.53316z M42.07018,77.28497l0.01946-0.20905
		c0.0058,0.08743,0.01178,0.17489,0.01786,0.26188l-0.00536,0.11349c-0.01-0.01509-0.0169-0.02699-0.02631-0.04151
		L42.07018,77.28497z M42.12023,76.74644l0.00199-0.02139l0.00375,0.08335L42.12023,76.74644z M42.09913,76.51911
		c-0.00072-0.01485-0.0014-0.02958-0.00206-0.04386l0.00694-0.15269l0.00438,0.09681L42.09913,76.51911z M42.12585,75.87258
		l0.00113-0.01208l0.01577,0.18876l-0.00598,0.06452L42.12585,75.87258z M42.55476,75.53033l-0.0616,0.00289l0.00146-0.03172
		l0.05818-0.00271l0.00232,0.02767L42.55476,75.53033z M43.94716,75.43332c0.02723,0.00562,0.05854,0.01118,0.08055,0.01685
		c0.01556,0.00401,0.03083,0.00506,0.04636,0.00854l-0.12064,0.00568l-0.16772-0.00756l-0.11853-0.01038L43.94716,75.43332z
		 M42.33434,74.64835l-0.00312-0.17302l0.01515-0.16296l0.01535,0.33847C42.35258,74.65005,42.34345,74.64915,42.33434,74.64835z
		 M42.3325,74.007l-0.00813,0.08761l-0.00452-0.25077c0.0022,0.0127,0.00485,0.02767,0.00708,0.04056L42.3325,74.007z
		 M42.26789,73.29932c-0.00149-0.00861-0.00306-0.01774-0.00452-0.02625l-0.00181-0.03844
		c0.00149-0.01494,0.00291-0.02895,0.00437-0.04381L42.26789,73.29932z M42.17915,73.08431
		c0.00991,0.07728,0.01387,0.15834,0.01375,0.24086l-0.02494,0.28294c-0.0005,0.00274-0.00113,0.00551-0.00167,0.00825
		c0.00307-0.16632,0.00581-0.32658,0.00842-0.48188L42.17915,73.08431z M42.06571,73.88993
		c-0.00113-0.00631-0.00217-0.01241-0.00327-0.01872c0.00179-0.09704,0.00351-0.19382,0.00515-0.28732l0.01226,0.14626
		L42.06571,73.88993z M39.49849,75.19546c0.00229-0.00158,0.00461-0.00315,0.0069-0.00476l0.22304,0.01009
		c-0.00161,0.00111-0.0033,0.0023-0.00494,0.0034c-0.07178-0.00214-0.14513-0.00446-0.2123-0.0061
		C39.50697,75.19718,39.50268,75.19635,39.49849,75.19546z M41.72683,75.40573l-0.03286,0.00277
		c0.00015-0.00146,0.00024-0.0028,0.00036-0.00423L41.72683,75.40573z M41.75283,75.44579l-0.00069,0.01488l-0.0619,0.00521
		l-0.00113-0.00012c0.00042-0.00494,0.00083-0.00979,0.00125-0.01476L41.75283,75.44579z M41.83151,75.54158l0.00212,0.02274
		l-0.04437,0.00208l0.00086-0.0178C41.8039,75.54625,41.81759,75.54396,41.83151,75.54158z M42.0894,77.71052l-0.00985-0.21812
		c0.00663,0.0099,0.01258,0.01919,0.0194,0.02925L42.09,77.71135C42.08979,77.71105,42.08961,77.71082,42.0894,77.71052z
		 M42.13285,77.696c0.00205,0.0294,0.0042,0.05949,0.00619,0.08805c-0.00274-0.00423-0.00676-0.00996-0.00967-0.01434
		L42.13285,77.696z M42.15061,76.41942l0.00033-0.00368l-0.00024,0.0055L42.15061,76.41942z M42.37029,76.64591
		c0.00155-0.033,0.00333-0.06683,0.00494-0.10011l0.00887,0.18834c-0.00188,0.02339-0.00286,0.04654-0.005,0.06996l-0.00759-0.09061
		L42.37029,76.64591z M42.41267,75.92665c-0.00086-0.00577-0.00211-0.01333-0.00301-0.01922
		c0.0017-0.02911,0.00336-0.05821,0.00509-0.08726l0.00149,0.03235C42.41505,75.87978,42.41389,75.90237,42.41267,75.92665z
		 M42.59735,75.52831l-0.00009-0.0011l0.00286-0.03065l0.00702-0.00032c0.00173,0.01038,0.00357,0.0211,0.00533,0.03136
		L42.59735,75.52831z M43.7207,75.28161l0.16697-0.01398c0.03175,0.0039,0.06255,0.00455,0.09389,0.00658l-0.11948,0.01003
		C43.81503,75.28336,43.76816,75.2825,43.7207,75.28161z M44.17237,75.07562c-0.18634-0.00313-0.38775-0.00661-0.59645-0.01048
		l0.37365-0.0347c0.10427,0.01018,0.20739,0.02032,0.3086,0.0303C44.23117,75.06544,44.20061,75.07074,44.17237,75.07562z
		 M43.23477,75.00185c0.05014-0.00878,0.09874-0.01727,0.14855-0.02599c0.02166,0.00206,0.04321,0.00414,0.06485,0.0062
		L43.23477,75.00185z M43.09705,74.98316c-0.07565,0.01324-0.15135,0.02649-0.227,0.03973
		c-0.02652-0.00249-0.05256-0.005-0.07922-0.0075l-0.00036-0.02008l0.31943-0.0144
		C43.10532,74.9817,43.10166,74.98236,43.09705,74.98316z M42.7487,75.01149c-0.02357-0.0022-0.04732-0.0044-0.07095-0.00661
		l-0.00021-0.00449l0.07088-0.00318L42.7487,75.01149z M42.40237,74.61604l-0.01842-0.40561
		c0.00066,0.00372,0.00116,0.00675,0.00182,0.01048c0.00351,0.01997,0.00702,0.04005,0.01053,0.06005L42.40237,74.61604z
		 M42.44323,74.54836c0.00105,0.00592,0.00211,0.01187,0.00313,0.01777l-0.00232,0.02628L42.44323,74.54836z M42.39142,74.00914
		c-0.00372-0.02122-0.00732-0.0419-0.01104-0.06306l0.0083-0.08925L42.39142,74.00914z M42.19722,72.88088l0.00357-0.0405
		l0.00408,0.08684C42.20227,72.91165,42.19966,72.89582,42.19722,72.88088z M42.03247,73.16421
		c-0.00238,0.14689-0.00503,0.30449-0.00792,0.46909l-0.02639-0.58338l0.00896-0.18906L42.03247,73.16421z M42.00899,74.45049
		c-0.00015,0.00842-0.0003,0.01655-0.00042,0.0247c-0.00931-0.05202-0.01848-0.10433-0.02761-0.15665
		c-0.01134-0.06464-0.02226-0.12725-0.0336-0.19189l0.01244-0.26318L42.00899,74.45049z M41.8788,73.97917l0.01497,0.33142
		l-0.03008-0.32347l0.00351-0.07428C41.87077,73.93335,41.87511,73.95814,41.8788,73.97917z M41.76533,74.82996l0.00521,0.05586
		l-0.03065,0.00282c0.00179-0.01991,0.00357-0.0396,0.00538-0.05963L41.76533,74.82996z M40.60636,74.9937L40.133,74.97233
		c0.0069-0.0047,0.0139-0.00955,0.02074-0.01416l0.55494,0.02604L40.60636,74.9937z M39.34868,75.24846l-0.1426-0.01324
		c0.05038,0.00075,0.10293,0.0017,0.15778,0.0028C39.35853,75.24173,39.35398,75.2448,39.34868,75.24846z M39.41388,75.25453
		c0.00756-0.00527,0.01357-0.00935,0.02134-0.01476c0.01985,0.00047,0.04288,0.00128,0.06324,0.00179
		c0.04264,0.00869,0.08714,0.01678,0.13132,0.02494c-0.00125,0.00083-0.00244,0.0016-0.00369,0.00241l-0.11183-0.00506
		L39.41388,75.25453z M40.24783,75.37413l0.02184,0.00205l-0.08487,0.00384L40.24783,75.37413z M41.65267,75.4024
		c-0.00027,0.00316-0.00056,0.00646-0.00084,0.00961l-0.03622,0.00301c0.00042-0.00479,0.0008-0.0094,0.00125-0.01425
		L41.65267,75.4024z M41.68049,75.56723c0.02169-0.00366,0.04509-0.00768,0.06717-0.01143l-0.0006,0.01259l-0.06693,0.00316
		C41.68025,75.57014,41.6804,75.56866,41.68049,75.56723z M41.88106,75.62053l0.03199-0.0006l-0.00396,0.04475l-0.02387,0.00042
		L41.88106,75.62053z M41.94927,76.80836l-0.00976,0.21607c0.00125-0.05972,0.00441-0.13451,0.00917-0.2225L41.94927,76.80836z
		 M42.12594,77.84229c0.00583,0.00922,0.0144,0.02169,0.01934,0.02982c0.00128,0.01868,0.00244,0.03565,0.00369,0.0538
		l-0.00032,0.00366c-0.01116,0.05261-0.02241,0.10291-0.03399,0.15209L42.12594,77.84229z M42.17133,76.87726l0.01464-0.31116
		l0.04053,0.48441l-0.03134,0.35386L42.17133,76.87726z M42.20117,76.24358l0.01473-0.31267
		c0.00512,0.0313,0.00994,0.06116,0.01473,0.09091l0.03017,0.64088l-0.01262,0.14263L42.20117,76.24358z M42.33976,77.40481
		c0.00069-0.00384,0.00125-0.00791,0.00191-0.01178l0.00262,0.14578l-0.0053-0.11263
		C42.33919,77.4193,42.33952,77.41171,42.33976,77.40481z M42.65478,75.5256c-0.00173-0.01015-0.00363-0.02113-0.00536-0.03136
		l0.00914-0.00044l0.00149,0.03157L42.65478,75.5256z M44.88877,75.39216c0.00274-0.00119,0.00464-0.0022,0.00732-0.00339
		l0.05371-0.00253c-0.00928,0.00247-0.018,0.00509-0.02744,0.00747L44.88877,75.39216z M44.88741,75.34723l-0.48703,0.02285
		l-0.15626-0.00705l-0.10847-0.00955l0.64338-0.01155c0.04035,0.0006,0.07794,0.00122,0.11582,0.00176
		C44.89217,75.34493,44.89014,75.34598,44.88741,75.34723z M44.78257,75.29979c-0.1534-0.00243-0.32383-0.0052-0.50449-0.00827
		l0.18075-0.01511l0.4498,0.0211L44.78257,75.29979z M44.66124,75.05875c0.03098-0.00393,0.0535-0.00613,0.06482-0.00613
		c0.00247,0,0.00449,0.0003,0.0061,0.0006c0.03297,0.01104,0.0574,0.01392,0.07439,0.01015l0.00664,0.01065
		C44.76617,75.06928,44.71474,75.0641,44.66124,75.05875z M44.79143,75.02328c-0.00271-0.0005-0.01661-0.00393-0.02607-0.00578
		c0.00857-0.0014,0.0177-0.00291,0.02607-0.00425V75.02328z M44.78429,74.97186c-0.10329,0.01678-0.22488,0.03714-0.37094,0.06216
		c-0.07713-0.00764-0.15897-0.01571-0.24339-0.02402l0.47893-0.04449L44.78429,74.97186z M43.67058,74.96144
		c-0.01381-0.00134-0.02717-0.00262-0.04103-0.00396l0.16293-0.00735L43.67058,74.96144z M42.7897,74.95341l-0.0006-0.03324
		c0.0802,0.00738,0.16049,0.01479,0.24161,0.02238L42.7897,74.95341z M42.74768,74.95531l-0.07213,0.00324l-0.00229-0.04907
		c0.02449,0.00224,0.0491,0.00449,0.07371,0.00676L42.74768,74.95531z M42.45683,74.38219
		c-0.00616-0.03494-0.01229-0.06996-0.01845-0.10499l-0.0033-0.18287l0.0222,0.26488
		C42.45713,74.36707,42.45698,74.37463,42.45683,74.38219z M42.31589,72.71096l-0.00051-0.01193
		c0.00048-0.00491,0.00101-0.0103,0.00152-0.01517l0.00565,0.06847C42.32065,72.73825,42.31807,72.72483,42.31589,72.71096z
		 M42.2337,72.52238l-0.0028,0.06154l-0.00259-0.05585l0.0017-0.01935C42.2312,72.5134,42.23254,72.51768,42.2337,72.52238z
		 M42.12594,72.90317l-0.00434-0.09222c0.00244,0.0091,0.00497,0.01765,0.00732,0.0269L42.12594,72.90317z M41.97385,72.46328
		l0.00637,0.07556l-0.00262,0.05603l-0.00529-0.11653C41.97281,72.47349,41.97334,72.46813,41.97385,72.46328z M41.87916,74.60776
		c-0.01497-0.0013-0.02964-0.00259-0.04455-0.00387l0.01485-0.31535L41.87916,74.60776z M41.88058,74.64925l-0.00678,0.14364
		l-0.04797-0.00226l0.00685-0.14561C41.84851,74.64639,41.86467,74.64784,41.88058,74.64925z M41.79051,74.6466l-0.00048-0.00533
		c0.00024,0,0.00048,0.00006,0.00074,0.00006L41.79051,74.6466z M41.7614,74.78759l-0.01235-0.00056
		c0.00202-0.02232,0.00402-0.04446,0.00607-0.06686L41.7614,74.78759z M41.70343,74.82705
		c-0.002,0.02202-0.00387,0.04356-0.00586,0.06553l-0.03488,0.00321c0.00217-0.02348,0.00432-0.04678,0.00652-0.07034
		L41.70343,74.82705z M41.15249,74.94311l-0.01607,0.00149c-0.30895-0.01649-0.61308-0.03027-0.89998-0.04115
		c0.02024-0.01331,0.03791-0.02405,0.05687-0.0361L41.15249,74.94311z M40.06289,74.96915l-0.21346-0.00964
		c0.00771-0.00485,0.01577-0.01009,0.02324-0.01473l0.21119,0.00991C40.0769,74.95944,40.06988,74.96432,40.06289,74.96915z
		 M39.12276,75.17338l0.09561,0.00432c0.02119,0.00533,0.04208,0.01062,0.06404,0.01586
		c-0.07529-0.00125-0.14549-0.002-0.21114-0.00238c-0.00795-0.00414-0.01208-0.00753-0.01818-0.01134L39.12276,75.17338z
		 M39.50884,75.30553l0.02157,0.00199c-0.03657,0.00247-0.07332,0.00488-0.10754,0.00723
		c-0.01869-0.00526-0.03354-0.01023-0.05116-0.01541L39.50884,75.30553z M41.57515,75.39948
		c-0.00056,0.00634-0.00116,0.01276-0.00173,0.01907l-0.20667,0.01727l-0.2941-0.02729L41.57515,75.39948z M40.90454,75.59607
		l-0.33675,0.00598l0.20709-0.01735C40.81794,75.58774,40.86205,75.5941,40.90454,75.59607z M41.83467,75.62133l-0.00211,0.0447
		l-0.04803,0.00089l0.00211-0.04473L41.83467,75.62133z M41.9054,75.70668l-0.00797,0.09002l-0.00834-0.08972L41.9054,75.70668z
		 M41.90335,77.1738c0.00113,0.00777,0.00164,0.02023,0.00321,0.0244c0.00518,0.01384,0.01375,0.03122,0.02286,0.04916
		l-0.00988,0.21822c-0.00845-0.01214-0.01693-0.02428-0.02541-0.03645C41.89704,77.34532,41.89987,77.26186,41.90335,77.1738z
		 M41.99438,77.64657l-0.01324,0.14254c0.00077-0.05035,0.00169-0.10281,0.00286-0.15762
		C41.98769,77.63678,41.99072,77.64133,41.99438,77.64657z M42.27545,76.97376l0.00363,0.0769
		c-0.00179,0.02241-0.00271,0.04461-0.00476,0.06705l-0.00565-0.06747L42.27545,76.97376z M42.29235,77.33253l0.00003,0.00089
		l-0.00003-0.00069C42.29235,77.33268,42.29235,77.33262,42.29235,77.33253z M42.48971,75.60966l0.05776-0.00104l-0.00414,0.04463
		l-0.05565,0.00101L42.48971,75.60966z M42.7484,75.56316l0.01027-0.00051v0.00033L42.7484,75.56316z M42.70216,75.52337
		l-0.00149-0.03155l0.05666-0.00265l0.00056,0.03158L42.70216,75.52337z M42.79935,75.48718l0.08966-0.0042l0.22566,0.02095
		l-0.31475,0.01485L42.79935,75.48718z M43.9718,75.54131l-0.25601-0.02378l0.1826-0.0086l0.31949,0.02797L43.9718,75.54131z
		 M44.61026,75.49409c0.00387-0.00122,0.00735-0.00244,0.01119-0.00363c0.05116-0.00503,0.10014-0.01232,0.14858-0.02065
		l0.5175,0.04806l-0.1182,0.00208l0.00003-0.0006L44.61026,75.49409z M44.86229,75.2279l0.04821,0.0022l0.00134,0.00214
		L44.86229,75.2279z M45.00656,75.08862c-0.01223-0.00018-0.02202-0.00032-0.03553-0.00056
		c0.04651-0.02003,0.08618-0.03892,0.11769-0.0549l0.03157,0.05035L45.00656,75.08862z M45.05851,74.98462l0.00798,0.01279
		c-0.04615,0.02316-0.11076,0.05283-0.18754,0.08324c-0.00423-0.00041-0.00857-0.00086-0.01286-0.0013l-0.04431-0.07104
		c0.06389-0.0103,0.12177-0.01943,0.17064-0.02678L45.05851,74.98462z M44.99117,74.93941l-0.04068-0.00187l0.07431-0.0069
		l0.00232,0.00372C45.01516,74.93606,45.0045,74.93745,44.99117,74.93941z M43.43299,74.92442l-0.10174,0.00455
		c-0.17879-0.01696-0.36061-0.03392-0.54292-0.05067v-0.00033l0.71745,0.03371
		C43.48328,74.91561,43.45612,74.92034,43.43299,74.92442z M42.66823,74.80262l-0.00119-0.02557l0.00521-0.05606
		c0.02369,0.00223,0.04758,0.00446,0.07133,0.00669l0.00122,0.06783L42.66823,74.80262z M42.53241,74.6665l0.02574-0.56838
		c0.00848-0.06818,0.01708-0.13088,0.0258-0.18873l0.03601,0.76517C42.59077,74.67186,42.56164,74.66918,42.53241,74.6665z
		 M42.54557,73.44382l-0.03601,0.40888c0.0078-0.42087,0.01423-0.8163,0.01887-1.12293l0.0252,0.53565L42.54557,73.44382z
		 M42.4654,73.9518l-0.04059-0.48387l0.06005-0.64639C42.47986,73.13885,42.47322,73.53819,42.4654,73.9518z M42.4171,73.0963
		l-0.00542-0.30029l0.03982-0.4285c0.00887,0.0203,0.01801,0.04232,0.02726,0.06526L42.4171,73.0963z M42.33752,72.45515
		l-0.02565-0.00018l0.01315-0.14924l0.02006-0.01247L42.33752,72.45515z M42.11345,72.63752l-0.00193-0.04092
		c0.00235,0.01792,0.00554,0.03979,0.00872,0.06175C42.11791,72.65144,42.11576,72.64427,42.11345,72.63752z M42.10523,72.46346
		l-0.00167-0.03532h0.0086C42.11229,72.43361,42.11032,72.44582,42.10523,72.46346z M42.08,72.82384l0.00179,0.03844
		l-0.00203-0.02214C42.07985,72.83455,42.07994,72.8294,42.08,72.82384z M42.04357,72.4479
		c-0.00012-0.0003-0.00021-0.00045-0.00033-0.00075l-0.01101-0.11826l0.00128-0.02652l0.01226-0.00764
		C42.04533,72.32729,42.04458,72.3793,42.04357,72.4479z M41.88942,72.54988l-0.03291-0.00024l-0.00601-0.13287l0.04649-0.02905
		L41.88942,72.54988z M41.84818,73.30065c-0.00521,0.05306-0.01071,0.10951-0.0161,0.16492
		c-0.00694-0.04008-0.01396-0.08068-0.02057-0.11913c0.00908-0.09088,0.01795-0.17938,0.02672-0.26625L41.84818,73.30065z
		 M41.79271,74.60026c-0.00217-0.00021-0.00441-0.00041-0.00655-0.0006l-0.01-0.10751
		c0.01419-0.15305,0.02872-0.30698,0.04338-0.46104L41.79271,74.60026z M41.70742,74.78378
		c-0.01178-0.00098-0.02244-0.00179-0.03413-0.00271c0.00458-0.04946,0.00928-0.09901,0.01393-0.14867
		c0.01146,0.00098,0.02232,0.00194,0.03383,0.00291C41.7165,74.68487,41.71192,74.73435,41.70742,74.78378z M41.6274,74.82348
		c-0.00235,0.02541-0.00462,0.05083-0.007,0.07624l-0.05704,0.00529c-0.48048-0.04082-0.90623-0.07308-1.19099-0.08716
		c0.03791-0.02223,0.06919-0.03812,0.09496-0.04884L41.6274,74.82348z M39.79818,74.94129
		c-0.00747,0.00479-0.01518,0.00988-0.0228,0.01485l-0.162-0.00732l-0.09499-0.00881
		c0.00565-0.00395,0.01021-0.00705,0.01601-0.01109L39.79818,74.94129z M39.47016,74.98429l0.23182,0.02054
		c-0.00265,0.00175-0.00506,0.0033-0.00768,0.00506l-0.25896-0.0122c0.00628-0.00435,0.01369-0.00953,0.02021-0.01405
		L39.47016,74.98429z M39.63633,75.04914c-0.00381,0.00262-0.00768,0.00526-0.01152,0.00788
		c-0.03955,0.0028-0.08008,0.00565-0.11853,0.00839c-0.0294,0.00208-0.05711,0.00402-0.08579,0.00601l-0.08329-0.00738
		c0.01256-0.00828,0.02654-0.01777,0.04041-0.02715L39.63633,75.04914z M38.9989,75.18487
		c0.00226,0.00208,0.00256,0.0039,0.00533,0.00607c-0.02505-0.00003-0.04898,0-0.07219,0.00012L38.9989,75.18487z
		 M40.09139,75.42615l0.60041-0.0108l0.43569,0.04047l-0.70477,0.05886c-0.17084-0.02175-0.33764-0.05012-0.49464-0.08115
		L40.09139,75.42615z M40.44013,75.55539c0.00158,0.00018,0.00312,0.00021,0.00467,0.00041l-0.02187,0.00101L40.44013,75.55539z
		 M41.63395,75.62493c-0.00122,0.01482-0.0025,0.03006-0.00372,0.04475l-0.03705,0.00066
		c0.00128-0.0147,0.00262-0.02994,0.00393-0.04475L41.63395,75.62493z M41.67564,75.62419l0.06886-0.00122l-0.00211,0.04469
		l-0.07038,0.00125C41.67326,75.65377,41.67439,75.63951,41.67564,75.62419z M41.74043,75.70966l-0.06547,1.38924
		c-0.033-0.05448-0.05993-0.10263-0.07207-0.13522c-0.02256-0.05967,0.00928-0.56672,0.06568-1.25272L41.74043,75.70966z
		 M41.78256,75.70891l0.04803-0.00086l-0.07196,1.52298c-0.01693-0.02557-0.02934-0.04649-0.04449-0.07024L41.78256,75.70891z
		 M41.86404,75.89148l0.01283,0.1382l-0.04166,0.47188L41.86404,75.89148z M41.8985,76.26206l0.00158,0.01711
		c-0.01416,0.26465-0.0267,0.52789-0.03675,0.77824l-0.02565,0.29015c-0.01044-0.01521-0.02074-0.03036-0.03101-0.04541
		L41.8985,76.26206z M41.8916,77.49921c0.0083,0.0119,0.01661,0.0238,0.02482,0.03562l-0.01217,0.26857l-0.00863,0.09287
		c-0.0053-0.00761-0.00943-0.01369-0.01491-0.02155C41.88344,77.75793,41.88722,77.63113,41.8916,77.49921z M42.01322,78.32952
		l0.0078-0.17229c0.00589,0.00937,0.01458,0.02199,0.01952,0.0302c0.00354,0.04975,0.00678,0.0974,0.00976,0.14278
		c-0.02,0.04559-0.03812,0.07954-0.05148,0.08883c-0.00087-0.00175-0.00173-0.00407-0.00274-0.00726
		c-0.00446-0.01405-0.00795-0.04273-0.01062-0.08338L42.01322,78.32952z M42.24438,77.65913
		c0.00744-0.04434,0.01506-0.0885,0.02181-0.13371l0.0017,0.02021c-0.00774,0.0383-0.01545,0.07681-0.02345,0.11359
		C42.24444,77.65919,42.24441,77.65916,42.24438,77.65913z M42.39091,77.79122l0.00396-0.08728l0.00923-0.09909l0.02719,0.32391
		c-0.0122-0.01788-0.02515-0.03693-0.03892-0.05683L42.39091,77.79122z M42.47218,76.15484l-0.00205-0.11308l0.01565-0.34549
		l0.05362-0.00095l-0.05919,0.63671L42.47218,76.15484z M42.60401,75.60761l0.02187-0.00039
		c0.00256,0.01533,0.00485,0.02937,0.00738,0.04443l-0.02554,0.00047L42.60401,75.60761z M42.70605,75.6058l0.03104-0.00053
		l0.02238,0.00205l0.00074,0.04208l-0.05208,0.00092L42.70605,75.6058z M42.80069,75.56068l0.61362-0.02892l0.17626,0.01637
		l-0.78988,0.01408V75.56068z M45.4318,75.25283l0.01648,0.02634l-0.06142-0.00539
		C45.40118,75.26694,45.41978,75.25896,45.4318,75.25283z M45.40942,75.21709c-0.02863,0.01434-0.06547,0.03143-0.10633,0.04937
		l-0.33883-0.02964l-0.0028-0.00443l0.31136,0.01408l0.00202-0.04187l-0.13486-0.00607l0.06931-0.00313l0.19227,0.00893
		L45.40942,75.21709z M45.3744,75.16103l-0.13296-0.00622l-0.00015-0.00279l-0.02875,0.00127l0.00018-0.01637l0.02523-0.00119
		l-0.00077-0.01559l0.10859-0.00488L45.3744,75.16103z M45.16847,75.08131l-0.04226-0.06764
		c0.03065-0.01625,0.04753-0.02643,0.04869-0.02702l0.03767-0.02315c0.0144,0.00241,0.03214,0.00786,0.04181,0.00571
		l0.06586,0.10526L45.16847,75.08131z M45.23927,74.92883c-0.00407,0.00086-0.02021-0.00116-0.04577-0.00988
		c-0.01041-0.00321-0.05014-0.00018-0.12082,0.00905l-0.00107-0.00173l0.16766-0.01553V74.92883z M44.83705,74.73935
		c0.03357,0.01104,0.058,0.01423,0.07425,0.00988l0.05743,0.0918l-0.29628,0.02747l-0.03872,0.00175
		c-0.10666-0.0108-0.24301-0.02452-0.40421-0.04053C44.5694,74.77218,44.80932,74.73236,44.83705,74.73935z M44.07333,74.85616
		c0.09282,0.00919,0.18325,0.01824,0.27175,0.02714l-0.28178,0.01268l-0.17349-0.00813
		C43.95275,74.87681,44.0142,74.86633,44.07333,74.85616z M43.91597,74.84047c-0.06901,0.0119-0.14225,0.0247-0.2197,0.03806
		l-0.90868-0.0427l-0.00006-0.00208l0.54294-0.05029C43.52935,74.80259,43.72599,74.82175,43.91597,74.84047z M43.10642,74.762
		l-0.31963,0.02964l-0.0011-0.05997C42.89261,74.74171,42.99944,74.75182,43.10642,74.762z M42.74281,74.68603
		c-0.02229-0.00208-0.0444-0.00417-0.06672-0.00623l0.05576-0.5999L42.74281,74.68603z M42.69775,72.19418l0.02723,1.50554
		l-0.07216,0.77586l-0.03559-0.75622c0.00557-0.02687,0.01113-0.05788,0.01672-0.07967
		c0.07469-0.28916,0.05797-0.57281,0.00827-0.81371L42.69775,72.19418z M42.60922,73.54935l-0.01071-0.22768l0.02905-0.32975
		C42.64966,73.1654,42.6482,73.35535,42.60922,73.54935z M42.57723,72.74417l-0.00288,0.0641l-0.00426-0.09053
		C42.57244,72.7267,42.57494,72.73509,42.57723,72.74417z M42.49417,72.20058c-0.00027,0.01901-0.00063,0.0463-0.00107,0.07779
		l-0.0061,0.06532c-0.01012-0.02288-0.01866-0.04026-0.02777-0.05936l0.0061-0.0658L42.49417,72.20058z M42.41639,72.29104
		l-0.01155,0.12421l-0.00277-0.15439C42.40633,72.26938,42.41174,72.28139,42.41639,72.29104z M42.35467,71.96926l0.00229,0.12695
		l-0.00229-0.00375l-0.00711,0.14996l-0.01792,0.01115L42.35467,71.96926z M42.15038,71.9806
		c-0.00042,0.03252-0.00116,0.08398-0.00217,0.15198c-0.02005-0.04591-0.0388-0.08514-0.05449-0.11653L42.15038,71.9806z
		 M42.05798,72.03842c0.02455,0.04884,0.05636,0.1171,0.08862,0.20021c-0.00056,0.03985-0.00122,0.08344-0.0019,0.12978
		l-0.04268,0.02649l-0.01006-0.21322l-0.04214,0.00175l0.00271,0.05731l-0.01661,0.01039l0.0097-0.20515L42.05798,72.03842z
		 M41.96822,72.09413l0.01301,0.14007l-0.01997-0.00018l-0.00595-0.13183L41.96822,72.09413z M41.91424,72.12778l0.00348,0.07707
		l-0.01116-0.01824l-0.00711,0.14996l-0.05109,0.03193l-0.00878-0.19423L41.91424,72.12778z M41.80467,72.33678
		c-0.00452-0.03675-0.00666-0.06127-0.0055-0.06907c0.00196-0.00586,0.00033-0.00777,0.00182-0.01306L41.80467,72.33678z
		 M41.78006,72.46078c0.0103,0.06981,0.02452,0.15912,0.04226,0.26651l0.00289,0.06422
		c-0.01018,0.10052-0.02295,0.22733-0.03777,0.37558l-0.06246-0.67189L41.78006,72.46078z M41.78598,73.60556l0.01595,0.17135
		c-0.01535,0.15926-0.03098,0.32305-0.04669,0.49026l-0.01645-0.17715C41.75462,73.92585,41.77036,73.76417,41.78598,73.60556z
		 M41.71736,74.3138l0.01669,0.17974c-0.00312,0.03363-0.00616,0.06714-0.00925,0.10079
		c-0.01113-0.00095-0.02264-0.00196-0.03371-0.00291C41.69977,74.49882,41.70852,74.40642,41.71736,74.3138z M40.1366,74.54288
		c0.06681-0.02645,0.69521,0.01643,1.50902,0.08598c-0.00464,0.04961-0.00932,0.09907-0.01393,0.14891
		c-0.62737-0.05026-1.10434-0.07865-1.16671-0.0547c-0.00196,0.00074-0.00494,0.00244-0.00699,0.00327l-0.58874-0.0277
		C39.9817,74.62398,40.07993,74.5638,40.1366,74.54288z M39.81053,74.73819l0.57017,0.02676
		c-0.02544,0.01422-0.05318,0.03071-0.08329,0.04943c-0.06847-0.00283-0.12338-0.00393-0.16852-0.00378l-0.37617-0.03318
		C39.77217,74.76405,39.79152,74.75096,39.81053,74.73819z M39.69837,74.81491l0.27324,0.02407
		c-0.0275,0.01381-0.05812,0.03059-0.09353,0.05208c-0.09526-0.00291-0.19039-0.00581-0.27779-0.00786
		C39.6327,74.86053,39.66552,74.83755,39.69837,74.81491z M38.68733,74.93522c0.01408-0.00428,0.04276-0.00771,0.08329-0.01035
		l-0.00134,0.02779l0.6165,0.02782c-0.0067,0.00459-0.01375,0.00946-0.02027,0.0139l-0.55193-0.02604l-0.0019,0.0394
		c-0.07234-0.02806-0.11924-0.05247-0.13147-0.0699C38.68195,74.93725,38.68415,74.93609,38.68733,74.93522z M39.15391,75.09011
		c-0.02422,0.00164-0.04955,0.00333-0.07267,0.00494c-0.01943-0.00548-0.03497-0.01068-0.05326-0.01607L39.15391,75.09011z
		 M38.57517,75.25256c0.00158-0.0006,0.0039-0.00175,0.00696-0.00262c0.01405-0.00443,0.04282-0.00789,0.08344-0.01054
		l-0.00134,0.02798l0.56663,0.02559c0.01152,0.00396,0.02333,0.00795,0.03553,0.01196
		c-0.01012,0.0069-0.02148,0.01488-0.03119,0.02142c-0.07452,0.00423-0.14097,0.00765-0.18709,0.00872
		c-0.01845-0.00056-0.03503-0.00116-0.04895-0.00172c-0.02485-0.00116-0.04243-0.00175-0.05508-0.00175
		c-0.00277,0-0.0064,0.0003-0.00726,0c-0.02383,0.00086-0.02413,0.00553-0.025,0.0192
		c-0.00116,0.02119,0.00711,0.02178,0.06145,0.02586c0.01601,0.00143,0.04128,0.00086,0.0747,0.00056
		c0.00979,0.00039,0.0192,0.00066,0.02895,0.00101l-0.16126,0.01339C38.72581,75.33538,38.59669,75.28328,38.57517,75.25256z
		 M39.21376,75.47016l0.09282-0.00863l0.46974-0.02116c0.14885,0.03265,0.30854,0.0633,0.47435,0.08856l-0.52479,0.04372
		C39.54244,75.54265,39.36945,75.50709,39.21376,75.47016z M39.78387,75.70287l0.51818-0.02444
		c0.04886,0.0034,0.09892,0.01036,0.14695,0.01235L39.78387,75.70287z M40.94028,75.68207
		c0.04083-0.00378,0.08035-0.00872,0.11856-0.01422c0.06829-0.01024,0.14701-0.02268,0.22935-0.03589l0.02979-0.0014
		l0.23732-0.00423c-0.00131,0.01492-0.00262,0.02997-0.0039,0.04479L40.94028,75.68207z M41.49739,77.2778
		c-0.0258-0.06841,0.01979-0.72411,0.09222-1.56544l0.03711-0.00066c-0.05538,0.67703-0.08809,1.20108-0.06324,1.26678
		c0.01687,0.04508,0.05717,0.11463,0.10796,0.19465l-0.01756,0.3726C41.57904,77.43329,41.51887,77.33476,41.49739,77.2778z
		 M41.69326,77.60416l0.01744-0.37016c0.01458,0.02217,0.02899,0.04419,0.04461,0.06734l-0.01071,0.22685l-0.01181,0.13382
		C41.71941,77.64252,41.70617,77.62336,41.69326,77.60416z M41.77736,77.72677l0.00937-0.1984l0.01413-0.16022
		c0.0103,0.01503,0.0206,0.03006,0.03101,0.04508l-0.03074,0.34767C41.79322,77.7495,41.78527,77.73817,41.77736,77.72677z
		 M41.83875,77.81295c0,0.0006-0.00003,0.0013-0.00003,0.0019c-0.00006-0.00005-0.00009-0.00008-0.00012-0.00014L41.83875,77.81295z
		 M41.87895,77.94621c0.00378,0.00542,0.00687,0.01006,0.01063,0.01542l-0.01354,0.14548
		C41.87681,78.05575,41.87776,78.00227,41.87895,77.94621z M41.89362,78.73376c-0.00086-0.00173-0.00172-0.00408-0.00277-0.00726
		c-0.00441-0.01408-0.00786-0.04285-0.01054-0.08368l0.02812,0.00116l0.02782-0.61454
		c0.00018,0.0003,0.00039,0.00056,0.00056,0.00086c0.00018,0.07845,0.00119,0.14632,0.00294,0.2039l-0.00518,0.0558l0.0075,0.00071
		c0.00315,0.06625,0.00762,0.1138,0.01387,0.13356c0.0128,0.04154,0.03735,0.04068,0.04824,0.03806
		c0.00309-0.00071,0.00681-0.00601,0.01009-0.00785C41.96522,78.6105,41.92097,78.71484,41.89362,78.73376z M42.28093,77.70123
		l0.00098,0.01182c-0.00089-0.00128-0.00182-0.00259-0.00271-0.00387C42.27977,77.70656,42.28033,77.70388,42.28093,77.70123z
		 M42.34175,78.63961c-0.00086-0.00176-0.00175-0.00408-0.00277-0.00726c-0.00441-0.01411-0.00786-0.04292-0.01051-0.08371
		l0.02351,0.00098l0.00571,0.06821C42.35232,78.62538,42.34628,78.63642,42.34175,78.63961z M42.39374,77.94829
		c0.01649,0.02416,0.03068,0.04556,0.04482,0.06696l0.02785,0.3316c-0.02211,0.07118-0.04312,0.13248-0.06225,0.17963
		L42.39374,77.94829z M42.55925,78.00212l-0.00637-0.06868l-0.05883-1.29625l0.08106-0.8718l0.1235,1.47465
		C42.66392,77.51322,42.61282,77.77676,42.55925,78.00212z M42.61124,75.694l0.02898-0.0005
		c0.01393,0.08377,0.02693,0.16319,0.03889,0.23759l0.04815,1.02265c-0.00182,0.02277-0.00274,0.04526-0.00482,0.06805
		L42.61124,75.694z M42.74063,77.23724l0.00003,0.0008l-0.00006-0.00063C42.7406,77.23736,42.74063,77.2373,42.74063,77.23724z
		 M42.76768,76.91514c0.00348-0.04987,0.01053-0.10094,0.01258-0.14996l0.01235,0.67999L42.76768,76.91514z M42.77155,76.27578
		c-0.00393-0.04068-0.00872-0.0802-0.01437-0.11826c-0.0103-0.06838-0.02274-0.14719-0.03598-0.22964l-0.0111-0.23563
		l0.05088-0.00092L42.77155,76.27578z M42.80227,75.64862l-0.00069-0.03741l0.33761,0.03136L42.80227,75.64862z M43.52003,75.63573
		l-0.40165-0.03728l0.70549-0.01259c0.08106,0.00783,0.1601,0.00902,0.23762,0.00598l0.30833,0.02863L43.52003,75.63573z"/>
	<g>
		<g>
			<path class="st1" d="M9.59963,69.44263l1.10585,1.22955c1.05553-1.07978,1.85966-1.48119,2.91591-1.48119
				c0.90433,0,1.53294,0.30134,2.16099,1.02937l-0.80404,0.90442c-0.47747-0.52798-1.00533-0.7531-1.63391-0.7531
				c-1.48238,0-2.63895,1.25462-2.63895,2.86217v7.08172H9.49923V69.41698L9.59963,69.44263z"/>
			<path class="st1" d="M18.56218,66.70777c0,0.52696-0.45242,0.97958-0.98009,0.97958c-0.52756,0-0.97968-0.45262-0.97968-1.00452
				c0-0.5022,0.45212-0.95399,0.97968-0.95399C18.10976,65.72884,18.56218,66.18063,18.56218,66.70777z M18.18502,80.31557h-1.20655
				V69.41698h1.20655V80.31557z"/>
			<path class="st1" d="M68.51756,66.70777c0,0.52696-0.45209,0.97958-0.97977,0.97958c-0.52806,0-0.98039-0.45262-0.98039-1.00452
				c0-0.5022,0.45233-0.95399,0.98039-0.95399C68.06548,65.72884,68.51756,66.18063,68.51756,66.70777z M68.14082,80.31557h-1.20664
				V69.41698h1.20664V80.31557z"/>
			<path class="st1" d="M25.73425,71.92819c-0.42736-1.13016-1.05592-1.58195-2.16177-1.58195
				c-1.18129,0-1.95989,0.67763-1.95989,1.73257c0,0.95403,0.52759,1.40582,2.33705,1.93358
				c1.2819,0.37656,1.75967,0.60231,2.21158,1.02937c0.4778,0.47756,0.77961,1.23045,0.77961,1.98387
				c0,1.98453-1.65918,3.51578-3.79533,3.51578c-1.85966,0-2.99087-0.82907-3.82014-2.86246l1.2314-0.67888
				c0.42694,1.63251,1.25664,2.38641,2.63882,2.38641c1.40748,0,2.43808-0.92905,2.43808-2.23468
				c0-1.08079-0.40212-1.43167-2.33734-2.035c-1.38222-0.42647-1.80958-0.62677-2.23685-1.05371
				c-0.47789-0.47756-0.75443-1.15531-0.75443-1.85854c0-1.70783,1.40775-3.01357,3.29259-3.01357
				c1.40787,0,2.4132,0.5519,3.16692,1.75753L25.73425,71.92819z"/>
			<path class="st1" d="M29.42854,75.11681c0.15081,2.63722,1.58383,4.26968,3.71998,4.26968
				c1.33181,0,2.16147-0.57776,2.96551-2.05851l1.13142,0.67683c-0.85475,1.65805-2.31261,2.53661-4.12249,2.53661
				c-2.99045,0-5.02649-2.28529-5.02649-5.70087c0-3.33931,1.98551-5.67427,4.82568-5.67427
				c1.88513,0,3.34309,0.95403,3.97129,2.56083c0.35201,0.85392,0.45251,1.6829,0.45251,3.38972H29.42854z M35.98869,73.98766
				c-0.02526-2.38633-1.10597-3.66638-3.09148-3.66638c-1.98584,0-3.192,1.30502-3.3932,3.66638H35.98869z"/>
		</g>
		<g>
			<path class="st1" d="M52.62492,71.92819c-0.42644-1.13016-1.05574-1.58195-2.16138-1.58195
				c-1.18102,0-1.96039,0.67763-1.96039,1.73257c0,0.95403,0.52768,1.40582,2.33797,1.93358
				c1.28098,0.37656,1.75875,0.60231,2.21108,1.02937c0.47798,0.47756,0.7794,1.23045,0.7794,1.98387
				c0,1.98453-1.65879,3.51578-3.79533,3.51578c-1.85936,0-2.99066-0.82907-3.81993-2.86246l1.23108-0.67888
				c0.42727,1.63251,1.25717,2.38641,2.63918,2.38641c1.40766,0,2.43813-0.92905,2.43813-2.23468
				c0-1.08079-0.40263-1.43167-2.33693-2.035c-1.38302-0.42647-1.8105-0.62677-2.23777-1.05371
				c-0.47697-0.47756-0.75351-1.15531-0.75351-1.85854c0-1.70783,1.40704-3.01357,3.29268-3.01357
				c1.40686,0,2.41228,0.5519,3.16603,1.75753L52.62492,71.92819z"/>
			<path class="st1" d="M57.04808,70.67218c1.10627-1.10451,1.96099-1.50592,3.2428-1.50592
				c1.38201,0,2.58803,0.60231,3.21754,1.63177c0.40162,0.65269,0.55232,1.35612,0.55232,2.66164v6.85589h-1.20685v-6.85589
				c0-1.28005-0.1002-1.68218-0.55231-2.23479c-0.45292-0.57755-1.18162-0.87865-2.08604-0.87865
				c-1.83514,0-3.16745,1.15498-3.16745,2.71224v7.25709h-1.20602V62.73722h1.20602V70.67218z"/>
			<path class="st1" d="M72.22849,70.67218c1.10648-1.10451,1.96102-1.50592,3.24301-1.50592
				c1.38219,0,2.58806,0.60231,3.21736,1.63177c0.40159,0.65269,0.55249,1.35612,0.55249,2.66164v6.85589h-1.20667v-6.85589
				c0-1.28005-0.101-1.68218-0.55228-2.23479c-0.45313-0.57755-1.18204-0.87865-2.08624-0.87865
				c-1.85999,0-3.16766,1.15498-3.16766,2.76194v7.20739h-1.20563V69.41698h0.07535L72.22849,70.67218z"/>
			<path class="st1" d="M82.58436,75.11681c0.15007,2.63722,1.58279,4.26968,3.71935,4.26968
				c1.33228,0,2.16138-0.57776,2.96539-2.05851l1.13132,0.67683c-0.85455,1.65805-2.31211,2.53661-4.12178,2.53661
				c-2.99107,0-5.02682-2.28529-5.02682-5.70087c0-3.33931,1.98504-5.67427,4.82581-5.67427
				c1.88463,0,3.3424,0.95403,3.97087,2.56083c0.35192,0.85392,0.45209,1.6829,0.45209,3.38972H82.58436z M89.14326,73.98766
				c-0.02485-2.38633-1.10461-3.66638-3.09065-3.66638c-1.98503,0-3.19147,1.30502-3.3929,3.66638H89.14326z"/>
		</g>
	</g>
	<g>
		<path class="st0" d="M0.05472,108.05456h2.73468c1.19465,0,1.86665,0.59074,1.86665,1.64017
			c0,0.66203-0.26137,1.12049-0.84936,1.48714c0.39204,0.16311,0.56005,0.27505,0.73732,0.50943
			c0.21465,0.29536,0.32669,0.67228,0.32669,1.1104c0,0.75388-0.308,1.39555-0.84936,1.7318
			c-0.33594,0.21384-0.79327,0.31573-1.37192,0.31573H0.05472V108.05456z M1.94006,110.81522
			c0.83065,0,1.14802-0.22408,1.14802-0.82511c0-0.54002-0.2614-0.71316-1.02672-0.71316H1.51074v1.53827H1.94006z
			 M2.0707,113.62685c0.83065,0,1.18531-0.26497,1.18531-0.88635c0-0.38698-0.18661-0.67227-0.52256-0.76389
			c-0.1401-0.04086-0.31737-0.05095-0.76536-0.05095H1.51074v1.70119H2.0707z"/>
		<path class="st0" d="M9.84463,110.81522v1.20206H7.49262v1.56869h2.70665v1.26328H5.99931v-6.79468h3.84532v1.26324H7.49262
			v1.49741H9.84463z"/>
		<path class="st0" d="M14.22135,109.84735c-0.17736-0.55008-0.48536-0.81484-0.95206-0.81484
			c-0.42929,0-0.76524,0.32597-0.76524,0.73348c0,0.23417,0.12129,0.44823,0.3266,0.57044
			c0.17736,0.10186,0.17736,0.11195,0.95206,0.39725c0.54125,0.20375,0.9426,0.41759,1.19465,0.64188
			c0.34529,0.30544,0.55059,0.8352,0.55059,1.39555c0,0.69263-0.27997,1.31398-0.78393,1.72152
			c-0.42941,0.3566-0.95209,0.50941-1.69873,0.50941c-0.70926,0-1.21325-0.14255-1.66123-0.46854
			c-0.38266-0.27503-0.55071-0.50941-0.76536-1.05949l1.33463-0.601c0.21465,0.59074,0.57865,0.87606,1.11999,0.87606
			c0.50396,0,0.83068-0.29539,0.83068-0.74358c0-0.29559-0.11207-0.47881-0.37335-0.64191
			c-0.2053-0.13248-0.2053-0.13248-0.87728-0.35657c-0.44798-0.15284-0.98-0.49914-1.24137-0.81487
			c-0.26128-0.30562-0.42932-0.81506-0.42932-1.26324c0-0.56014,0.23337-1.10017,0.61603-1.46682
			c0.40126-0.37692,0.97066-0.57062,1.69861-0.57062c1.16662,0,1.82937,0.39748,2.16531,1.30392L14.22135,109.84735z"/>
		<path class="st0" d="M18.88737,114.84924h-1.49331v-5.5417H15.7048v-1.25298h4.88121v1.25298h-1.69864V114.84924z"/>
		<path class="st0" d="M24.94392,114.84924h-1.49331v-6.79468h1.49331V114.84924z"/>
		<path class="st0" d="M32.14879,114.84924h-1.48396l-2.8186-4.1665v4.1665h-1.48396v-6.79468h1.41852l2.88404,4.26836v-4.26836
			h1.48396V114.84924z"/>
		<path class="st0" d="M38.18644,114.84924h-1.49331v-5.5417h-1.68929v-1.25298h4.88121v1.25298h-1.69861V114.84924z"/>
		<path class="st0" d="M45.73647,114.84924h-1.49331v-2.76069h-2.34267v2.76069h-1.49331v-6.79468h1.49331v2.73006h2.34267v-2.73006
			h1.49331V114.84924z"/>
		<path class="st0" d="M51.01832,110.81522v1.20206h-2.35189v1.56869h2.70664v1.26328h-4.19998v-6.79468h3.84523v1.26324h-2.35189
			v1.49741H51.01832z"/>
		<path class="st0" d="M54.76023,108.05456h2.73459c1.19465,0,1.86654,0.59074,1.86654,1.64017
			c0,0.66203-0.26128,1.12049-0.84916,1.48714c0.39192,0.16311,0.55993,0.27505,0.73721,0.50943
			c0.21465,0.29536,0.3266,0.67228,0.3266,1.1104c0,0.75388-0.30791,1.39555-0.84916,1.7318
			c-0.33603,0.21384-0.79348,0.31573-1.3721,0.31573h-2.59452V108.05456z M56.64545,110.81522
			c0.83068,0,1.14802-0.22408,1.14802-0.82511c0-0.54002-0.26128-0.71316-1.0266-0.71316h-0.5507v1.53827H56.64545z
			 M56.77609,113.62685c0.83068,0,1.18543-0.26497,1.18543-0.88635c0-0.38698-0.18674-0.67227-0.52277-0.76389
			c-0.1399-0.04086-0.31738-0.05095-0.76536-0.05095h-0.45723v1.70119H56.77609z"/>
		<path class="st0" d="M64.55014,110.81522v1.20206h-2.35189v1.56869h2.70664v1.26328h-4.19998v-6.79468h3.84523v1.26324h-2.35189
			v1.49741H64.55014z"/>
		<path class="st0" d="M68.51617,108.05456c1.95976,0,2.98661,1.12049,2.98661,3.2701c0,1.41584-0.45745,2.50595-1.28812,3.06609
			c-0.41983,0.28532-1.10118,0.45849-1.7825,0.45849h-2.48277v-6.79468H68.51617z M67.44269,113.58596h0.72798
			c0.56014,0,0.92412-0.13228,1.20409-0.4176c0.34528-0.36665,0.5507-1.03913,0.5507-1.81332
			c0-0.87606-0.25205-1.52804-0.70004-1.82339c-0.25202-0.1629-0.50408-0.21384-1.07345-0.21384h-0.70929V113.58596z"/>
		<path class="st0" d="M72.59389,108.05456h2.21204c0.88653,0,1.18521,0.05095,1.5494,0.28529
			c0.50384,0.326,0.79327,0.91674,0.79327,1.65025c0,0.8352-0.32681,1.41588-1.06401,1.8846l1.5494,2.97453h-1.73611
			l-1.25053-2.67915h-0.57883v2.67915h-1.47462V108.05456z M74.48859,110.95779h0.05606c0.67188,0,1.05458-0.28511,1.05458-0.86579
			c0-0.55008-0.27074-0.79472-0.98-0.76414l-0.2239,0.01027h-0.32681v1.61966H74.48859z"/>
		<path class="st0" d="M83.50372,108.62497c0.70947,0.62135,1.03606,1.50768,1.03606,2.8219
			c0,1.31398-0.3266,2.19004-1.03606,2.82166c-0.55997,0.48907-1.27869,0.73351-2.13728,0.73351
			c-0.8773,0-1.58657-0.24444-2.14671-0.73351c-0.7372-0.65195-1.04511-1.50768-1.04511-2.88287
			c0-1.25301,0.34529-2.14939,1.04511-2.76069c0.5694-0.48887,1.26941-0.73351,2.13746-0.73351
			C82.23448,107.89146,82.93452,108.12583,83.50372,108.62497z M79.78912,111.42651c0,1.41587,0.60677,2.31229,1.56806,2.31229
			c0.95188,0,1.56788-0.89642,1.56788-2.29193c0-1.38549-0.616-2.28188-1.56788-2.28188
			C80.41438,109.16499,79.78912,110.06138,79.78912,111.42651z"/>
		<path class="st0" d="M90.62415,108.62497c0.70947,0.62135,1.03606,1.50768,1.03606,2.8219
			c0,1.31398-0.3266,2.19004-1.03606,2.82166c-0.55997,0.48907-1.27866,0.73351-2.13728,0.73351
			c-0.87727,0-1.58656-0.24444-2.1465-0.73351c-0.73741-0.65195-1.04553-1.50768-1.04553-2.88287
			c0-1.25301,0.3455-2.14939,1.04553-2.76069c0.56919-0.48887,1.26923-0.73351,2.13728-0.73351
			C89.35493,107.89146,90.05496,108.12583,90.62415,108.62497z M86.90956,111.42651c0,1.41587,0.60677,2.31229,1.56808,2.31229
			c0.95186,0,1.56786-0.89642,1.56786-2.29193c0-1.38549-0.616-2.28188-1.56786-2.28188
			C87.53502,109.16499,86.90956,110.06138,86.90956,111.42651z"/>
		<path class="st0" d="M99.95662,114.84924h-1.44667v-4.34994l-1.57735,4.34994h-1.12933l-1.59579-4.34994v4.34994h-1.44671
			v-6.79468h1.89448l1.70816,4.32937l1.7359-4.32937h1.85731V114.84924z"/>
	</g>
</g>
</svg>
