<svg xmlns="http://www.w3.org/2000/svg" viewBox="0 0 114 114"><defs><style>.cls-1{fill:#f3af86;}</style></defs><title>WhyChooseUs_icon4</title><g id="Layer_2" data-name="Layer 2"><g id="Layer_1-2" data-name="Layer 1"><path class="cls-1" d="M57,0a57,57,0,1,0,57,57A57.06,57.06,0,0,0,57,0Zm0,109a52,52,0,1,1,52-52A52,52,0,0,1,57,109Z"/><path class="cls-1" d="M57,11.05a46,46,0,0,0-5.86.38l-.21,0h-.15l-.09,0a9.19,9.19,0,0,0-1.45,17.87,9.24,9.24,0,0,0-6.28,7C33,38.46,28,44.23,28,53.5c0,6.81,4.49,14.73,6.9,19,.44.78.79,1.4,1,1.81,0,.09,4.83,8.6,8,8.6h2c3.68,0,4.7-3.39,5.2-5,.06-.2.13-.46.21-.68h2.93s2.24,0,4.67,0c.14.29.3.73.42,1.05.59,1.59,1.69,4.57,4.93,4.57H65c4.11.11,5.75-1.48,7.19-7.14,1.28-5.06,1.77-5.45,7.86-9.06,6.47-3.82,6.87-6.82,6.75-11.3,0-.46,0-.94,0-1.45,0-4.24-3-5.8-5.33-7.06a13.2,13.2,0,0,1-3.72-2.57c-.91-1-.76-2.15-.21-4.39.48-2,1.14-4.72-1.12-6.57-2.9-2.38-6.9-.36-9.55,1a15.85,15.85,0,0,1-1.81.83,32.41,32.41,0,0,1-4.31.2,9.26,9.26,0,0,0-6-6,9.2,9.2,0,0,0,6.46-8.78,9.09,9.09,0,0,0-1.11-4.37,40.88,40.88,0,1,1-22.32,4.68,2.52,2.52,0,1,0-2.37-4.44A46,46,0,1,0,57,11.05Zm9,29a13.18,13.18,0,0,0,3.1-1.28A18.41,18.41,0,0,1,73,37.21c-.06.43-.21,1-.32,1.5-.57,2.36-1.44,5.93,1.4,9a17.82,17.82,0,0,0,5.06,3.59c2.34,1.24,2.66,1.56,2.66,2.62,0,.56,0,1.08,0,1.58.08,3.18.11,4.25-4.28,6.84-6.62,3.92-8.43,5.23-10.18,12.16a16.22,16.22,0,0,1-1.11,3.33,5.79,5.79,0,0,1-1,0h-.63A12.82,12.82,0,0,1,64,76.54c-.56-1.52-1.6-4.34-4.61-4.34-2.57,0-5.09,0-5.15,0H50.44c-2.93,0-3.76,2.77-4.21,4.26a9.26,9.26,0,0,1-.52,1.44H44.65a29.8,29.8,0,0,1-4.28-5.79c-.24-.48-.63-1.18-1.14-2.07C37.21,66.43,33,59,33,53.5c0-4.81,1.28-10,10.38-12.12a8.56,8.56,0,0,0,.43,1,2.51,2.51,0,0,0,.46,5H59.45a2.51,2.51,0,0,0,.67-4.93,9.43,9.43,0,0,0,.77-2A31.57,31.57,0,0,0,66,40.08Zm-9.87-1.93A4.17,4.17,0,1,1,52,34,4.17,4.17,0,0,1,56.14,38.15ZM52,24.74a4.16,4.16,0,1,1,4.17-4.16A4.16,4.16,0,0,1,52,24.74Z"/><path class="cls-1" d="M69.6,52.7a2.82,2.82,0,1,0-2.81-2.81A2.81,2.81,0,0,0,69.6,52.7Zm0-3.36a.55.55,0,0,1,.54.55.54.54,0,0,1-.54.54.55.55,0,0,1-.55-.54A.55.55,0,0,1,69.6,49.34Z"/></g></g></svg>