<svg xmlns="http://www.w3.org/2000/svg" viewBox="0 0 114 114"><defs><style>.cls-1{fill:#ccc3c0;}</style></defs><title>WhyChooseUs_icon3</title><g id="Layer_2" data-name="Layer 2"><g id="Layer_1-2" data-name="Layer 1"><path class="cls-1" d="M57,0a57,57,0,1,0,57,57A57.06,57.06,0,0,0,57,0Zm0,109a52,52,0,1,1,52-52A52,52,0,0,1,57,109Z"/><path class="cls-1" d="M57,11a46,46,0,0,0-38.42,71.2,2.52,2.52,0,0,0,4.2-2.77A41,41,0,1,1,31.45,89V56.42H82.93V66.61H36.87a2.52,2.52,0,0,0,0,5H85.45A2.51,2.51,0,0,0,88,69.13V53.9a2.52,2.52,0,0,0-2.52-2.52H80.1V38.49A2.52,2.52,0,0,0,77.58,36H36.2a2.52,2.52,0,0,0-2.51,2.52V51.38H28.93a2.52,2.52,0,0,0-2.52,2.52V90.2a2.51,2.51,0,0,0,1.21,2.14A46,46,0,1,0,57,11ZM75.06,51.38H59.52V41H75.06ZM38.72,41H54.48V51.38H38.72Z"/></g></g></svg>