<svg xmlns="http://www.w3.org/2000/svg" viewBox="0 0 114 114"><defs><style>.cls-1{fill:#a288b8;}</style></defs><title>WhyChooseUs_icon5</title><g id="Layer_2" data-name="Layer 2"><g id="Layer_1-2" data-name="Layer 1"><path class="cls-1" d="M57,0a57,57,0,1,0,57,57A57.06,57.06,0,0,0,57,0Zm0,109a52,52,0,1,1,52-52A52,52,0,0,1,57,109Z"/><path class="cls-1" d="M59.15,35.37A2.52,2.52,0,0,0,56.92,34h0a2.49,2.49,0,0,0-2.23,1.37l-5,9.89L38.18,46.94a2.52,2.52,0,0,0-1.39,4.3l8.28,8.07-2,11.39a2.52,2.52,0,0,0,3.66,2.65L57,68l10.23,5.38a2.44,2.44,0,0,0,1.17.29,2.51,2.51,0,0,0,1.48-.48,2.48,2.48,0,0,0,1-2.46L68.93,59.31l8.28-8.07a2.53,2.53,0,0,0-1.4-4.3L64.33,45.28Zm5.32,21.26a2.51,2.51,0,0,0-.72,2.22l1.31,7.68L58.17,62.9A2.56,2.56,0,0,0,57,62.61a2.53,2.53,0,0,0-1.17.29l-6.89,3.63,1.31-7.68a2.51,2.51,0,0,0-.72-2.22L44,51.19l7.71-1.12a2.52,2.52,0,0,0,1.88-1.35L57,42l3.52,6.73a2.52,2.52,0,0,0,1.87,1.32l7.71,1.12Z"/><path class="cls-1" d="M57,11.13a45.51,45.51,0,0,0-27.4,9.08l0,0h0s-.06.07-.1.1a2.72,2.72,0,0,0-.24.24l-.12.15c0,.08-.11.16-.16.25a1.21,1.21,0,0,0-.09.2,2.56,2.56,0,0,0-.11.24,1.55,1.55,0,0,0,0,.23c0,.08,0,.16-.05.23s0,.18,0,.26v.22a2.36,2.36,0,0,0,0,.28,1.42,1.42,0,0,0,0,.2,8.8,8.8,0,0,0,.17.46,1.91,1.91,0,0,0,.16.27c0,.05,0,.1.08.14s0,0,0,0l0,0L42.39,40.43a2.51,2.51,0,0,0,2,1,2.48,2.48,0,0,0,1.56-.55,2.51,2.51,0,0,0,.4-3.54L34.75,22.76A40.46,40.46,0,0,1,57,16.17,40.82,40.82,0,1,1,25.49,31a2.51,2.51,0,1,0-3.88-3.2A45.86,45.86,0,1,0,57,11.13Z"/><path class="cls-1" d="M24.35,67.78a2.5,2.5,0,0,0,2.33,1.59,2.61,2.61,0,0,0,.94-.18L38.23,65a2.52,2.52,0,1,0-1.87-4.67L25.75,64.51A2.51,2.51,0,0,0,24.35,67.78Z"/><path class="cls-1" d="M54.48,76.6v9.94a2.52,2.52,0,1,0,5,0V76.6a2.52,2.52,0,0,0-5,0Z"/><path class="cls-1" d="M74.53,61.74A2.51,2.51,0,0,0,75.93,65l10.45,4.18a2.57,2.57,0,0,0,.94.18,2.52,2.52,0,0,0,.93-4.86L77.8,60.34A2.51,2.51,0,0,0,74.53,61.74Z"/><path class="cls-1" d="M69.71,41.3a2.53,2.53,0,0,0,2-.95l6-7.57a2.52,2.52,0,1,0-3.93-3.14l-6,7.57a2.52,2.52,0,0,0,2,4.09Z"/></g></g></svg>