<svg xmlns="http://www.w3.org/2000/svg" viewBox="0 0 114 114"><defs><style>.cls-1{fill:#62baa2;}</style></defs><title>WhyChooseUs_icon2</title><g id="Layer_2" data-name="Layer 2"><g id="Layer_1-2" data-name="Layer 1"><path class="cls-1" d="M57,0a57,57,0,1,0,57,57A57.06,57.06,0,0,0,57,0Zm0,109a52,52,0,1,1,52-52A52,52,0,0,1,57,109Z"/><path class="cls-1" d="M57,11.05A45.62,45.62,0,0,0,20.28,29.36l0,.05A2.52,2.52,0,0,0,22,33.49l8.46.9,12,35.26a9.76,9.76,0,1,0,15.33,8c0-.12,0-.24,0-.35l27.16-9.15a2.52,2.52,0,0,0-1.6-4.77l-27,9.1a9.78,9.78,0,0,0-8.27-4.6,7.55,7.55,0,0,0-.83,0L34.66,31.25a2.52,2.52,0,0,0-2.12-1.7L27.18,29A40.56,40.56,0,0,1,57,16.08a40.87,40.87,0,1,1-37.32,24.1,2.51,2.51,0,1,0-4.58-2.07A46,46,0,1,0,57,11.05ZM52.67,77.66a4.73,4.73,0,1,1-4.73-4.73A4.73,4.73,0,0,1,52.67,77.66Z"/><path class="cls-1" d="M70.56,30.85l-24.39,8.3a2.56,2.56,0,0,0-1.45,1.27,2.51,2.51,0,0,0-.12,1.92l7.92,23.27a2.51,2.51,0,0,0,2.38,1.71,2.3,2.3,0,0,0,.81-.14l24.39-8.3a2.5,2.5,0,0,0,1.57-3.19L73.76,32.42A2.53,2.53,0,0,0,70.56,30.85ZM56.47,61.61,50.17,43.1,69.8,36.43l6.3,18.5Z"/></g></g></svg>